<svg width="960" height="540" viewBox="0 0 960 540" fill="none" xmlns="http://www.w3.org/2000/svg">
  <rect width="960" height="540" rx="36" fill="#091120"/>
  <rect x="38" y="38" width="884" height="464" rx="30" fill="url(#panel)"/>
  <circle cx="158" cy="132" r="72" fill="url(#glowA)" fill-opacity="0.55"/>
  <circle cx="800" cy="390" r="92" fill="url(#glowB)" fill-opacity="0.42"/>
  <path d="M175 358C175 334.804 193.804 316 217 316H743C766.196 316 785 334.804 785 358V373C785 396.196 766.196 415 743 415H217C193.804 415 175 396.196 175 373V358Z" fill="#101A2D" stroke="rgba(255,255,255,0.12)"/>
  <path d="M298 210L480 126L662 210L480 294L298 210Z" fill="url(#capTop)"/>
  <path d="M360 237V305C360 319.539 413.726 352 480 352C546.274 352 600 319.539 600 305V237" stroke="#D0AAFF" stroke-width="18" stroke-linecap="round"/>
  <path d="M662 210V304" stroke="#F6A56C" stroke-width="16" stroke-linecap="round"/>
  <circle cx="662" cy="325" r="18" fill="#F6A56C"/>
  <rect x="246" y="162" width="468" height="28" rx="14" fill="#0E1728"/>
  <path d="M273 167H687" stroke="url(#accent)" stroke-width="8" stroke-linecap="round"/>
  <rect x="250" y="345" width="460" height="14" rx="7" fill="#1A2740"/>
  <rect x="286" y="377" width="160" height="14" rx="7" fill="#1A2740"/>
  <rect x="514" y="377" width="160" height="14" rx="7" fill="#1A2740"/>
  <defs>
    <linearGradient id="panel" x1="118" y1="88" x2="848" y2="456" gradientUnits="userSpaceOnUse">
      <stop stop-color="#0D1526"/>
      <stop offset="1" stop-color="#0A1322"/>
    </linearGradient>
    <linearGradient id="capTop" x1="298" y1="126" x2="662" y2="294" gradientUnits="userSpaceOnUse">
      <stop stop-color="#8F5EF7"/>
      <stop offset="0.55" stop-color="#C97FD9"/>
      <stop offset="1" stop-color="#F49867"/>
    </linearGradient>
    <linearGradient id="accent" x1="273" y1="171" x2="687" y2="171" gradientUnits="userSpaceOnUse">
      <stop stop-color="#8F5EF7"/>
      <stop offset="0.5" stop-color="#C97FD9"/>
      <stop offset="1" stop-color="#F49867"/>
    </linearGradient>
    <radialGradient id="glowA" cx="0" cy="0" r="1" gradientUnits="userSpaceOnUse" gradientTransform="translate(158 132) rotate(90) scale(72)">
      <stop stop-color="#8F5EF7"/>
      <stop offset="1" stop-color="#8F5EF7" stop-opacity="0"/>
    </radialGradient>
    <radialGradient id="glowB" cx="0" cy="0" r="1" gradientUnits="userSpaceOnUse" gradientTransform="translate(800 390) rotate(90) scale(92)">
      <stop stop-color="#F49867"/>
      <stop offset="1" stop-color="#F49867" stop-opacity="0"/>
    </radialGradient>
  </defs>
</svg>
